<?xml version="1.0" encoding="UTF-8" standalone="no"?>
<!-- Created with Inkscape (http://www.inkscape.org/) -->
<svg xmlns:dc="http://purl.org/dc/elements/1.1/" xmlns:cc="http://creativecommons.org/ns#" xmlns:rdf="http://www.w3.org/1999/02/22-rdf-syntax-ns#" xmlns:svg="http://www.w3.org/2000/svg" xmlns="http://www.w3.org/2000/svg" xmlns:sodipodi="http://sodipodi.sourceforge.net/DTD/sodipodi-0.dtd" xmlns:inkscape="http://www.inkscape.org/namespaces/inkscape" viewBox="0 0 750 700" id="svg2" version="1.1" inkscape:version="0.91+devel r" sodipodi:docname="Book_thick_generic.svg">
  <style type="text/css">
    #bookClose {
      transition: opacity 0.5s;
      opacity: 1;
    }
    svg:hover #bookClose {
      opacity: 0;
    }
    

    #bookOpen {
      opacity: 0;
    }
    svg:hover #bookOpen {
      transition: opacity 2s;
      opacity: 1;
    }
  </style>

  <g id="bookClose" inkscape:label="Book close" inkscape:groupmode="layer">
    <path style=" stroke:none;fill-rule:evenodd;fill:rgb(0%,0%,0%);fill-opacity:1;" d="M 76.664062 568.28125 C 74.804688 544.144531 127.035156 512.339844 204.925781 512.339844 L 673.382812 512.339844 L 672.453125 105.066406 L 204.925781 105.066406 C 124.078125 105.066406 70.929688 139.503906 77.171875 163.894531 "/>
    <path style="fill-rule:evenodd;fill:rgb(100%,100%,100%);fill-opacity:1;stroke-width:1.565234;stroke-linecap:butt;stroke-linejoin:miter;stroke:rgb(0%,0%,0%);stroke-opacity:1;stroke-miterlimit:4;" d="M 44.284656 86.941155 C 33.071531 86.941155 26.410593 82.424832 25.969812 77.369866 C 25.056531 66.887025 38.059031 53.316512 59.919812 53.68279 L 184.406062 53.68279 L 183.730125 56.329603 L 181.409187 57.627321 L 181.474812 59.919458 L 181.997625 62.566272 L 179.521375 64.076132 L 179.195437 66.79587 L 176.523406 68.020663 L 176.589031 70.312801 L 175.612312 72.391138 L 176.135125 75.037951 L 173.657781 76.549469 L 174.180593 79.196283 L 173.203875 81.27462 L 169.683093 82.572338 L 171.249343 85.432951 L 168.772 86.942812 Z M 44.284656 86.941155 " transform="matrix(3.571429,0,0,2.356902,-5.944641,-6.294625)"/>
    <path style="fill-rule:evenodd;fill:rgb(100%,100%,100%);fill-opacity:1;stroke-width:1.565234;stroke-linecap:butt;stroke-linejoin:miter;stroke:rgb(0%,0%,0%);stroke-opacity:1;stroke-miterlimit:4;" d="M 184.406062 217.647672 L 183.625125 220.294486 L 181.409187 221.592204 L 181.474812 223.884341 L 181.997625 226.531155 L 179.520281 228.041015 L 179.195437 230.759095 L 176.523406 231.985546 L 176.589031 234.277684 L 175.612312 236.356021 L 176.135125 239.002834 L 173.657781 240.512695 L 174.180593 243.161166 L 173.203875 245.239503 L 169.683093 246.53722 L 171.249343 249.397834 L 168.772 250.907695 L 168.772 86.942812 L 171.249343 85.432951 L 169.683093 82.572338 L 173.203875 81.27462 L 174.180593 79.196283 L 173.657781 76.549469 L 175.878093 75.014748 L 175.612312 72.391138 L 176.589031 70.312801 L 176.523406 68.020663 L 179.195437 66.79587 L 179.520281 64.076132 L 181.997625 62.566272 L 181.474812 59.919458 L 181.409187 57.627321 L 183.755281 56.329603 L 184.406062 53.68279 Z M 184.406062 217.647672 " transform="matrix(3.571429,0,0,2.356902,-5.944641,-6.294625)"/>
    <path style=" stroke:none;fill-rule:evenodd;fill:rgb(0%,0%,0%);fill-opacity:1;" d="M 146.09375 594.933594 L 614.550781 594.933594 L 614.550781 187.660156 L 146.09375 187.660156 C 102.042969 187.472656 80.773438 177.203125 77.171875 163.953125 L 76.660156 568.195312 C 77.710938 582.875 98.730469 594.742188 146.09375 594.933594 Z M 146.09375 594.933594 "/>
    <path style=" stroke:none;fill-rule:evenodd;fill:rgb(0%,0%,0%);fill-opacity:1;" d="M 642.703125 131.285156 L 641.945312 129.597656 L 527 131.285156 L 641.945312 132.972656 Z M 642.703125 131.285156 "/>
    <path style=" stroke:none;fill-rule:evenodd;fill:rgb(0%,0%,0%);fill-opacity:1;" d="M 634.039062 151.136719 L 632.328125 148.386719 L 372.546875 151.136719 L 632.328125 153.882812 Z M 634.039062 151.136719 "/>
    <path style=" stroke:none;fill-rule:evenodd;fill:rgb(0%,0%,0%);fill-opacity:1;" d="M 622 162.566406 L 621.636719 161.316406 L 566.386719 162.566406 L 621.636719 163.8125 Z M 622 162.566406 "/>
    <path style=" stroke:none;fill-rule:evenodd;fill:rgb(0%,0%,0%);fill-opacity:1;" d="M 642.148438 140.828125 C 642.148438 140.828125 638.996094 141.554688 638.996094 141.554688 C 640.046875 178.304688 641.097656 215.054688 642.148438 251.804688 C 642.148438 251.804688 645.296875 141.554688 645.296875 141.554688 C 644.25 141.3125 643.199219 141.070312 642.148438 140.828125 Z M 642.148438 140.828125 "/>
    <path style=" stroke:none;fill-rule:evenodd;fill:rgb(0%,0%,0%);fill-opacity:1;" d="M 631.59375 150.59375 C 630.300781 150.980469 629.007812 151.371094 627.714844 151.757812 C 629.007812 210.808594 630.300781 269.855469 631.59375 328.90625 C 631.59375 328.90625 635.472656 151.757812 635.472656 151.757812 C 634.179688 151.371094 632.886719 150.980469 631.59375 150.59375 Z M 631.59375 150.59375 "/>
    <path style=" stroke:none;fill-rule:evenodd;fill:rgb(0%,0%,0%);fill-opacity:1;" d="M 623.636719 161.375 L 621.335938 161.734375 L 624.550781 215.085938 L 625.949219 161.71875 Z M 623.636719 161.375 "/>
  </g>

  <g id="bookOpen" inkscape:label="Book open" inkscape:groupmode="layer" >
    <path style="fill-rule:nonzero;fill:rgb(0%,0%,0%);fill-opacity:1;stroke-width:4;stroke-linecap:round;stroke-linejoin:round;stroke:rgb(0%,0%,0%);stroke-opacity:1;stroke-miterlimit:4;" d="M 12.373273 1005.999313 C 163.124447 992.124043 314.764626 991.592697 467.395186 1005.999313 C 463.950945 910.361531 457.085858 816.679459 459.6151 717.630347 C 365.864163 720.889864 312.375752 641.846592 232.035259 704.549864 C 141.130695 639.895347 141.133294 723.169293 9.415125 722.934875 C 15.703139 818.615076 13.262277 912.114079 12.368074 1006.003778 Z M 12.373273 1005.999313 " transform="matrix(1.502735,0,0,1.749684,0,-1141.361017)"/>
    <path style=" stroke:none;fill-rule:nonzero;fill:rgb(100%,100%,100%);fill-opacity:1;" d="M 366.59375 524.882812 C 452.203125 452.941406 567.148438 568.75 666.238281 574.988281 L 665.710938 141.328125 C 509.019531 129.429688 453.480469 -6.125 363.933594 115.964844 Z M 366.59375 524.882812 "/>
    <path style=" stroke:none;fill-rule:nonzero;fill:rgb(100%,100%,100%);fill-opacity:1;" d="M 334.71875 529.832031 C 249.109375 457.886719 134.164062 573.695312 35.074219 579.925781 L 35.597656 146.285156 C 192.285156 134.386719 247.8125 -1.160156 337.375 120.929688 Z M 334.71875 529.832031 "/>
  </g>
</svg>
